Coordinates
version=1
nRows=18
nColumns=22
inDegrees=yes

Units are S.I. units (second, meters, Newtons, ...)
If the header above contains a line with 'inDegrees', this indicates whether rotational values are in degrees (yes) or radians (no).

endheader
time	pelvis_tilt	pelvis_list	pelvis_rotation	pelvis_tx	pelvis_ty	pelvis_tz	hip_flexion_r	hip_adduction_r	hip_rotation_r	knee_angle_r	ankle_angle_r	subtalar_angle_r	hip_flexion_l	hip_adduction_l	hip_rotation_l	knee_angle_l	ankle_angle_l	subtalar_angle_l	lumbar_extension	lumbar_bending	lumbar_rotation
      1.95000000	      4.05724962	      3.30528731	   -185.67414107	     -0.19429016	      0.96086255	      0.92359057	     23.84408420	      5.30746677	    -26.81953454	    -26.36507619	      6.62103051	     -7.05937424	     11.69399100	    -11.30829167	      8.60371818	    -58.70674273	      3.08672147	      6.20897520	     -3.21681711	     11.40409965	    -14.27589968
      1.96000000	      3.94365017	      3.23623731	   -186.57644661	     -0.20160914	      0.96192898	      0.91741824	     23.01420243	      5.96458840	    -26.03510803	    -25.99022921	      6.86773007	     -7.19370160	     12.64712568	    -11.27821257	      9.06315408	    -59.09306895	      3.35234892	      5.09552824	     -3.26705261	     11.19087729	    -13.86140531
      1.97000000	      3.83170846	      3.15453379	   -187.49836631	     -0.20884453	      0.96293384	      0.91122175	     22.17409163	      6.59139200	    -25.21902072	    -25.61371680	      7.11437035	     -7.31081004	     13.54278713	    -11.19197748	      9.57226779	    -59.24791918	      3.68070075	      4.12844065	     -3.30255602	     10.96101255	    -13.45054333
      1.98000000	      3.73008938	      3.06668557	   -188.44243055	     -0.21599353	      0.96387378	      0.90498841	     21.32498249	      7.20078477	    -24.36213366	    -25.21791206	      7.32599837	     -7.40578273	     14.39204745	    -11.06586034	     10.11689806	    -59.17940394	      4.05458233	      3.35106150	     -3.31540821	     10.72295326	    -13.04165810
      1.99000000	      3.62002353	      2.98088088	   -189.38222162	     -0.22307615	      0.96471862	      0.89876594	     20.46187864	      7.77457555	    -23.52463751	    -24.84285784	      7.60849976	     -7.50726856	     15.18147248	    -10.90266529	     10.71493454	    -58.90741158	      4.51695570	      2.57377686	     -3.32447245	     10.48730768	    -12.65602704
      2.00000000	      3.53730438	      2.89876792	   -190.35319968	     -0.23007122	      0.96547471	      0.89246585	     19.59749608	      8.35294135	    -22.63207669	    -24.42890973	      7.83166713	     -7.58217538	     15.94628086	    -10.73741029	     11.31283594	    -58.43963490	      4.99186022	      2.04853917	     -3.30075097	     10.25821489	    -12.26321967
      2.01000000	      3.42749278	      2.82232900	   -191.32767661	     -0.23699595	      0.96615074	      0.88616987	     18.69952388	      8.90013006	    -21.74155890	    -24.03446973	      8.10671980	     -7.66931005	     16.63206572	    -10.54893913	     11.93585653	    -57.79812943	      5.51980608	      1.42454374	     -3.30207250	     10.03346643	    -11.88201659
      2.02000000	      3.34515472	      2.75050378	   -192.33316836	     -0.24385415	      0.96671288	      0.87979115	     17.80286138	      9.44535790	    -20.81886638	    -23.61478991	      8.36345931	     -7.74480973	     17.29423379	    -10.37380071	     12.53615390	    -56.99178058	      6.05502500	      0.90458091	     -3.26861490	      9.81773640	    -11.48864872
      2.03000000	      3.27939281	      2.68165270	   -193.37058324	     -0.25059143	      0.96716747	      0.87337075	     16.90881156	      9.98341065	    -19.84153194	    -23.18696664	      8.60074744	     -7.81316197	     17.93210619	    -10.20304002	     13.11805847	    -56.04787819	      6.57779218	      0.47006297	     -3.22375356	      9.61302856	    -11.08134675
      2.04000000	      3.21156494	      2.61426905	   -194.43676419	     -0.25723823	      0.96752175	      0.86691624	     16.00066546	     10.49887159	    -18.84325269	    -22.76454276	      8.86601708	     -7.88972803	     18.52177453	    -10.03248730	     13.67723573	    -54.97588372	      7.12218576	      0.00259040	     -3.18441134	      9.41398322	    -10.65534602
      2.05000000	      3.16827638	      2.54615179	   -195.53358969	     -0.26375371	      0.96775498	      0.86043050	     15.10865342	     11.00041448	    -17.79744444	    -22.34383351	      9.11755230	     -7.96583020	     19.10493954	     -9.86720573	     14.21571473	    -53.80038154	      7.64663890	     -0.38779244	     -3.12413031	      9.22546736	    -10.20993802
      2.06000000	      3.13191236	      2.47677364	   -196.66132362	     -0.27016352	      0.96789320	      0.85391939	     14.21020867	     11.47951655	    -16.71739131	    -21.92328513	      9.37746229	     -8.04987627	     19.65950916	     -9.70397279	     14.72602644	    -52.52882956	      8.15622072	     -0.73639545	     -3.06157391	      9.04331059	     -9.74238044
      2.07000000	      3.11225584	      2.40377463	   -197.81983403	     -0.27644259	      0.96793465	      0.84739859	     13.32023032	     11.93732421	    -15.58726167	    -21.50528818	      9.62228686	     -8.13707763	     20.20589713	     -9.54201684	     15.20862367	    -51.18083188	      8.61954595	     -0.99131650	     -2.98756568	      8.87183196	     -9.25334987
      2.08000000	      3.09923697	      2.32783373	   -199.00142075	     -0.28261538	      0.96789430	      0.84086574	     12.42603671	     12.36781161	    -14.42458090	    -21.08863504	      9.86689792	     -8.23305538	     20.73337887	     -9.37836516	     15.66628247	    -49.76716057	      9.03680295	     -1.17926256	     -2.91020932	      8.70732639	     -8.74983503
      2.09000000	      3.09159274	      2.24746443	   -200.20048583	     -0.28869479	      0.96778229	      0.83433478	     11.52753260	     12.76659053	    -13.23156736	    -20.67431080	     10.10609282	     -8.33774647	     21.24466525	     -9.20761794	     16.10020221	    -48.30064593	      9.39456666	     -1.30578904	     -2.83025561	      8.55051976	     -8.24075392
      2.10000000	      3.09325667	      2.16204881	   -201.40831035	     -0.29468773	      0.96759297	      0.82780753	     10.63251668	     13.13238086	    -12.01926001	    -20.26593808	     10.33841457	     -8.44761979	     21.74998231	     -9.02578104	     16.51873393	    -46.79847829	      9.68481243	     -1.37805983	     -2.74130277	      8.40176261	     -7.73447126
      2.11000000	      3.09606432	      2.07044277	   -202.61999769	     -0.30061194	      0.96734062	      0.82131629	      9.74040451	     13.45768074	    -10.78651417	    -19.87448888	     10.56136960	     -8.55999761	     22.24264577	     -8.82390605	     16.92167270	    -45.26793939	      9.90769827	     -1.40539851	     -2.65343559	      8.26257428	     -7.23897793
      2.12000000	      3.14198658	      1.97392983	   -203.82902088	     -0.30644833	      0.96695386	      0.81482640	      8.89655846	     13.76265802	     -9.55388488	    -19.50042844	     10.78321899	     -8.65733707	     22.78459632	     -8.62299832	     17.30800630	    -43.74102099	     10.04916610	     -1.38701844	     -2.51972866	      8.14562078	     -6.75778538
